<?xml version="1.0" encoding="UTF-8"?>
<svg id="Compass-90" xmlns="http://www.w3.org/2000/svg" version="1.1" viewBox="0 0 399.3 106.2">
  <!-- Generator: Adobe Illustrator 29.8.1, SVG Export Plug-In . SVG Version: 2.1.1 Build 2)  -->
  <defs>
    <style>
      .st0, .st1 {
        fill: #fff;
      }

      .st2 {
        fill: #2a62ff;
      }

      .st1 {
        stroke: #2a62ff;
        stroke-miterlimit: 10;
        stroke-width: 3.8px;
      }
    </style>
  </defs>
  <g>
    <path d="M118.8,25.6h38.7v11h-25v10.7h21.6v10.6h-21.6v20.2h-13.7V25.6Z"/>
    <path d="M166.7,39.9h12.1v6.7h.1c.9-2.4,2.4-4.2,4.4-5.5,2-1.3,4.4-1.9,7.1-1.9s2.1,0,2.9.3v11.4c-1.8-.5-3.4-.7-4.8-.7-2.9,0-5.3.9-6.9,2.6-1.7,1.7-2.5,3.9-2.5,6.4v18.9h-12.5v-38.2Z"/>
    <path d="M198.8,51.1c1-2.5,2.4-4.6,4.2-6.5,1.8-1.8,3.9-3.3,6.4-4.3,2.5-1,5.2-1.5,8.1-1.5s5.6.5,8.1,1.5c2.5,1,4.6,2.4,6.4,4.3,1.8,1.8,3.2,4,4.2,6.5,1,2.5,1.5,5.1,1.5,8s-.5,5.5-1.5,8-2.4,4.6-4.2,6.4c-1.8,1.8-3.9,3.3-6.4,4.3-2.5,1-5.2,1.5-8.1,1.5s-5.6-.5-8.1-1.5c-2.5-1-4.6-2.4-6.4-4.3-1.8-1.8-3.2-4-4.2-6.4-1-2.5-1.5-5.1-1.5-8s.5-5.5,1.5-8ZM210.3,62.9c.3,1.2.7,2.4,1.3,3.4.6,1,1.4,1.9,2.4,2.5,1,.6,2.2.9,3.5.9s2.6-.3,3.6-.9,1.8-1.4,2.4-2.5,1-2.2,1.3-3.4c.3-1.3.4-2.5.4-3.8s-.1-2.5-.4-3.8c-.3-1.3-.7-2.4-1.3-3.5-.6-1.1-1.4-1.9-2.4-2.5s-2.2-.9-3.6-.9-2.6.3-3.5.9c-1,.6-1.8,1.4-2.4,2.5-.6,1-1,2.2-1.3,3.4-.3,1.3-.4,2.5-.4,3.9s.1,2.6.4,3.8Z"/>
    <path d="M270.2,48h-7.7v17.4c0,1.4.4,2.4,1.1,2.9s1.9.8,3.4.8.9,0,1.5,0c.7,0,1.3,0,1.7,0v9.2c-.6,0-1.6,0-2.9.1-1.7.1-3,.2-3.9.2-2.7,0-4.9-.2-6.6-.7-1.7-.4-3.1-1.2-4-2.2-1-1-1.7-2.4-2.1-4.1-.4-1.7-.6-3.9-.6-6.6v-17h-6.3v-8.1h6.3v-11.6h12.5v11.6h7.7v8.1Z"/>
    <path d="M278.2,51.7c0-2.4.7-4.5,1.7-6.1,1.1-1.7,2.5-3.1,4.2-4.1,1.6-.9,3.5-1.6,5.5-2,2.1-.4,4.3-.6,6.6-.6s4.8.2,6.8.5c2.1.3,3.9,1,5.6,1.9,1.7.9,3,2.2,3.9,3.9,1,1.7,1.4,3.8,1.4,6.4v16.7c0,2.2,0,4.1.3,5.6.2,1.5.6,2.9,1.2,4.2h-12.6c-.3-.8-.5-2-.7-3.6-1.5,1.6-3.4,2.8-5.6,3.6-2.2.8-4.6,1.1-7,1.1-3.8,0-7-1-9.4-2.9-2.4-2-3.6-4.8-3.6-8.6s.5-4.4,1.5-5.9c1-1.5,2.3-2.7,3.9-3.6,1.6-.8,3.3-1.4,5.1-1.8,1.8-.4,4-.8,6.7-1.1,2.4-.3,4-.6,5.1-.8,1.2-.2,2-.6,2.5-1.1.5-.5.8-1.3.8-2.4s-.6-2.3-1.9-3c-1.3-.7-2.6-1-4.2-1-3.6,0-5.7,1.6-6.3,4.8h-11.7ZM290.6,70.5c1,.7,2.2,1.1,3.8,1.1,2.8,0,4.8-.8,5.9-2.5s1.7-4.6,1.7-8.7c-.5.3-1.2.6-2,.8-.8.2-1.7.4-2.8.6-1.4.3-2.4.5-2.9.7-1.6.4-2.8,1-3.8,1.7-.9.7-1.4,1.8-1.4,3.2s.5,2.6,1.5,3.3Z"/>
    <path class="st2" d="M325,74.3c0-2.6,1.8-4.6,4.4-4.6s4.3,1.9,4.3,4.6-1.8,4.6-4.5,4.6-4.3-2-4.3-4.6Z"/>
    <path class="st2" d="M352.9,62.5l-5.2,15.6h-6.6l16.9-49.6h7.7l16.9,49.6h-6.8l-5.3-15.6h-17.6ZM369.3,57.5l-4.9-14.3c-1.1-3.2-1.8-6.2-2.6-9.1h-.1c-.7,2.9-1.5,6-2.5,9l-4.9,14.4h15Z"/>
    <path class="st2" d="M399.3,28.5v49.6h-6.5V28.5h6.5Z"/>
  </g>
  <g>
    <path class="st2" d="M85.7,66.1c-7.5,12.5-17.1,14.5-25.4,23.1-4,4.1-9.9,24.7-15.1,13.9-8.6-17.8-8-12.6-21.5-24.4C-5.4,53.3,3.6,5.7,42.4.4c36.9-5,62.9,33.1,43.3,65.6Z"/>
    <circle class="st0" cx="49.5" cy="43.6" r="35.6"/>
    <g>
      <path class="st1" d="M48.8,53.9c4.1.4,7.8-2.7,8.2-6.8.4-4.1-2.7-7.8-6.8-8.2-4.1-.4-7.8,2.7-8.2,6.8s2.7,7.8,6.8,8.2Z"/>
      <path class="st1" d="M4.7,86l57.1-25.1c.3-.2.6-.4.9-.7L96.8,9.8c1.1-1.7-.6-3.8-2.5-3l-57.1,25.1c-.3.2-.6.4-.9.7L2.2,83.1c-1.1,1.7.6,3.8,2.5,3ZM50.2,38.9c4.1.4,7.2,4.1,6.8,8.2-.4,4.1-4.1,7.2-8.2,6.8-4.1-.4-7.2-4.1-6.8-8.2s4.1-7.2,8.2-6.8Z"/>
    </g>
    <circle class="st2" cx="49.5" cy="46.4" r="7.5"/>
  </g>
</svg>